<svg width="25" height="25" viewBox="0 0 25 25" fill="none" xmlns="http://www.w3.org/2000/svg">
<path fill-rule="evenodd" clip-rule="evenodd" d="M8.06082 6.12012V6.87012H6.07382C5.11382 6.87012 4.30982 7.59412 4.20882 8.54912L2.94582 20.5491C2.91835 20.8105 2.94612 21.0747 3.02734 21.3246C3.10855 21.5745 3.24139 21.8046 3.41724 21.9998C3.59309 22.1951 3.80802 22.3512 4.0481 22.4581C4.28818 22.565 4.54804 22.6202 4.81082 22.6201H20.3108C20.5736 22.6202 20.8335 22.565 21.0735 22.4581C21.3136 22.3512 21.5286 22.1951 21.7044 21.9998C21.8803 21.8046 22.0131 21.5745 22.0943 21.3246C22.1755 21.0747 22.2033 20.8105 22.1758 20.5491L20.9128 8.54912C20.8644 8.08826 20.647 7.66167 20.3026 7.35163C19.9582 7.04158 19.5112 6.87005 19.0478 6.87012H17.0608V6.12012C17.0608 4.92664 16.5867 3.78205 15.7428 2.93814C14.8989 2.09422 13.7543 1.62012 12.5608 1.62012C11.3673 1.62012 10.2228 2.09422 9.37884 2.93814C8.53493 3.78205 8.06082 4.92664 8.06082 6.12012ZM12.5608 3.12012C11.7652 3.12012 11.0021 3.43619 10.4395 3.9988C9.87689 4.56141 9.56082 5.32447 9.56082 6.12012V6.87012H15.5608V6.12012C15.5608 5.32447 15.2447 4.56141 14.6821 3.9988C14.1195 3.43619 13.3565 3.12012 12.5608 3.12012ZM9.56082 11.3701C9.56082 12.1658 9.87689 12.9288 10.4395 13.4914C11.0021 14.054 11.7652 14.3701 12.5608 14.3701C13.3565 14.3701 14.1195 14.054 14.6821 13.4914C15.2447 12.9288 15.5608 12.1658 15.5608 11.3701V10.6201C15.5608 10.4212 15.6398 10.2304 15.7805 10.0898C15.9211 9.94914 16.1119 9.87012 16.3108 9.87012C16.5097 9.87012 16.7005 9.94914 16.8412 10.0898C16.9818 10.2304 17.0608 10.4212 17.0608 10.6201V11.3701C17.0608 12.5636 16.5867 13.7082 15.7428 14.5521C14.8989 15.396 13.7543 15.8701 12.5608 15.8701C11.3673 15.8701 10.2228 15.396 9.37884 14.5521C8.53493 13.7082 8.06082 12.5636 8.06082 11.3701V10.6201C8.06082 10.4212 8.13984 10.2304 8.28049 10.0898C8.42114 9.94914 8.61191 9.87012 8.81082 9.87012C9.00973 9.87012 9.2005 9.94914 9.34115 10.0898C9.4818 10.2304 9.56082 10.4212 9.56082 10.6201V11.3701Z" fill="white"/>
</svg>
