<svg width="25" height="25" viewBox="0 0 25 25" fill="none" xmlns="http://www.w3.org/2000/svg">
<path d="M22.3568 20.3242L17.9047 15.8701C19.2396 14.1306 19.8628 11.9484 19.6479 9.76618C19.4331 7.58401 18.3962 5.56527 16.7476 4.11948C15.0991 2.67368 12.9623 1.9091 10.7708 1.98082C8.5792 2.05255 6.49699 2.95521 4.9465 4.5057C3.396 6.05619 2.49334 8.13841 2.42162 10.33C2.34989 12.5215 3.11448 14.6583 4.56027 16.3068C6.00606 17.9554 8.0248 18.9923 10.207 19.2071C12.3891 19.422 14.5713 18.7988 16.3109 17.4639L20.7668 21.9207C20.8715 22.0254 20.9957 22.1084 21.1325 22.165C21.2692 22.2217 21.4157 22.2508 21.5637 22.2508C21.7117 22.2508 21.8583 22.2217 21.995 22.165C22.1317 22.1084 22.2559 22.0254 22.3606 21.9207C22.4652 21.8161 22.5483 21.6919 22.6049 21.5551C22.6615 21.4184 22.6907 21.2719 22.6907 21.1239C22.6907 20.9759 22.6615 20.8293 22.6049 20.6926C22.5483 20.5559 22.4652 20.4316 22.3606 20.327L22.3568 20.3242ZM4.68591 10.6201C4.68591 9.35926 5.05979 8.12671 5.76029 7.07835C6.46078 6.02999 7.45642 5.21289 8.6213 4.73038C9.78618 4.24787 11.068 4.12162 12.3046 4.3676C13.5412 4.61359 14.6772 5.22075 15.5687 6.11231C16.4603 7.00387 17.0674 8.13978 17.3134 9.37641C17.5594 10.613 17.4331 11.8948 16.9506 13.0597C16.4681 14.2246 15.651 15.2202 14.6027 15.9207C13.5543 16.6212 12.3218 16.9951 11.0609 16.9951C9.37069 16.9934 7.75019 16.3212 6.55502 15.126C5.35985 13.9308 4.68764 12.3103 4.68591 10.6201Z" fill="#FAFAFA"/>
</svg>
